<svg width="24" height="24" viewBox="0 0 24 24" fill="none" xmlns="http://www.w3.org/2000/svg">
<g id="Swap me">
<path id="Vector" d="M15.9951 5.005C15.9951 4.715 16.2351 4.465 16.5251 4.465C17.5851 4.435 18.4351 3.585 18.4651 2.525C18.4751 2.235 18.7151 2.005 19.0051 2.005C19.2951 2.005 19.5451 2.245 19.5451 2.525C19.5751 3.585 20.4251 4.435 21.4851 4.465C21.7751 4.475 22.0051 4.715 22.0051 5.005C22.0051 5.295 21.7651 5.545 21.4851 5.545C20.4251 5.575 19.5751 6.425 19.5451 7.485C19.5351 7.775 19.2951 8.005 19.0051 8.005C18.7151 8.005 18.4651 7.76501 18.4651 7.485C18.4351 6.425 17.5851 5.575 16.5251 5.545C16.2351 5.535 15.9951 5.295 15.9951 5.005ZM16.6451 8.61501C15.9351 8.59501 15.3751 8.025 15.3551 7.32501C15.3551 7.135 15.1951 6.975 14.9951 6.975C14.7951 6.975 14.6451 7.135 14.6351 7.32501C14.6151 8.03501 14.0451 8.59501 13.3451 8.61501C13.1551 8.61501 12.9951 8.775 12.9951 8.975C12.9951 9.175 13.1551 9.325 13.3451 9.335C14.0551 9.355 14.6151 9.925 14.6351 10.625C14.6351 10.815 14.7951 10.975 14.9951 10.975C15.1951 10.975 15.3451 10.815 15.3551 10.625C15.3751 9.915 15.9451 9.355 16.6451 9.335C16.8351 9.335 16.9951 9.175 16.9951 8.975C16.9951 8.775 16.8351 8.62501 16.6451 8.61501ZM19.1951 15.955L15.7451 15.255C15.5151 15.225 15.2751 15.245 15.0351 15.315C14.7951 15.395 14.5951 15.505 14.4451 15.655L12.0951 18.005C11.4651 17.635 10.8651 17.235 10.2951 16.795C9.72512 16.355 9.18512 15.875 8.67512 15.355C8.12512 14.825 7.62512 14.265 7.16512 13.695C6.70512 13.115 6.31512 12.525 5.97512 11.905L8.40512 9.455C8.53512 9.325 8.62512 9.165 8.67512 8.975C8.72512 8.785 8.73512 8.56501 8.70512 8.30501L8.05512 4.805C8.02512 4.585 7.91512 4.405 7.72512 4.245C7.54512 4.085 7.33512 4.005 7.10512 4.005H3.04512C2.74512 4.005 2.49512 4.105 2.29512 4.305C2.09512 4.505 1.99512 4.755 1.99512 5.055C1.99512 7.135 2.44512 9.19501 3.35512 11.225C4.26512 13.255 5.55512 15.105 7.21512 16.775C8.87512 18.445 10.7351 19.725 12.7651 20.635C14.7951 21.545 16.8551 21.995 18.9351 21.995C19.2351 21.995 19.4851 21.895 19.6851 21.695C19.8851 21.495 19.9851 21.245 19.9851 20.945V16.895C19.9851 16.675 19.9051 16.485 19.7651 16.305C19.6151 16.135 19.4251 16.005 19.1851 15.945L19.1951 15.955Z" fill="black" fill-opacity="0.65"/>
</g>
</svg>
