<svg width="192" height="193" viewBox="0 0 192 193" fill="none" xmlns="http://www.w3.org/2000/svg">
<mask id="mask0_14290_2656" style="mask-type:luminance" maskUnits="userSpaceOnUse" x="16" y="16" width="160" height="161">
<path d="M96 176.5C140.183 176.5 176 140.683 176 96.5C176 52.3172 140.183 16.5 96 16.5C51.8172 16.5 16 52.3172 16 96.5C16 140.683 51.8172 176.5 96 176.5Z" fill="white"/>
</mask>
<g mask="url(#mask0_14290_2656)">
<path d="M96.0002 176.5C140.183 176.5 176 140.683 176 96.5C176 52.3172 140.183 16.5 96.0002 16.5C51.8175 16.5 16.0002 52.3172 16.0002 96.5C16.0002 140.683 51.8175 176.5 96.0002 176.5Z" fill="#FAFAFA"/>
<path d="M65.6997 69.3569C72.0217 69.3569 77.1467 64.2319 77.1467 57.9099C77.1467 51.5879 72.0217 46.4629 65.6997 46.4629C59.3777 46.4629 54.2527 51.5879 54.2527 57.9099C54.2527 64.2319 59.3777 69.3569 65.6997 69.3569Z" fill="url(#paint0_linear_14290_2656)"/>
<path d="M63.2275 63.5191C63.2275 62.2384 64.2501 61.2754 65.7095 61.2754C67.169 61.2754 68.1717 62.2384 68.1717 63.5191C68.1717 64.7998 67.169 65.8026 65.7095 65.8026C64.2501 65.8026 63.2275 64.78 63.2275 63.5191ZM63.2474 50.3645H68.1717L67.3477 60.0542H64.0615L63.2573 50.3645H63.2474Z" fill="#FAFAFA"/>
<path d="M175.99 148.674H4.99976V213.752H175.99V148.674Z" fill="#F5F5F5"/>
<path d="M80.979 57.9097C100.547 54.3554 106.156 69.3567 100.825 78.6692C97.9063 83.7722 91.6516 86.4329 90.1724 84.0899C86.3401 78.0139 115.211 72.216 109.552 102.318" stroke="url(#paint1_linear_14290_2656)" stroke-width="0.382609" stroke-miterlimit="10" stroke-linecap="round"/>
<path d="M76.5112 105.634H135.464C136.556 105.634 137.449 106.527 137.449 107.619V174.514C137.449 175.606 136.556 176.5 135.464 176.5H76.5112V105.634Z" fill="url(#paint2_linear_14290_2656)"/>
<path d="M54.8284 105.634H76.5112V176.5H54.8284C53.7363 176.5 52.8428 175.606 52.8428 174.514V107.619C52.8428 106.527 53.7363 105.634 54.8284 105.634Z" fill="url(#paint3_linear_14290_2656)"/>
<path d="M64.8954 125.45H45.7145C44.2154 125.45 43.2623 123.862 43.9572 122.541L52.2868 106.696C52.6343 106.041 53.3094 105.634 54.0441 105.634H76.5211L66.6626 124.388C66.3151 125.043 65.64 125.45 64.9054 125.45H64.8954Z" fill="url(#paint4_linear_14290_2656)"/>
<path d="M146.077 125.45H89.4872C88.7923 125.45 88.137 125.083 87.7796 124.487L76.5212 105.634H136.616C137.311 105.634 137.966 106.001 138.323 106.597L147.785 122.442C148.579 123.762 147.626 125.45 146.077 125.45Z" fill="url(#paint5_linear_14290_2656)"/>
<path d="M45.3569 87.1777L35.2105 80.9131L36.5806 73.338L29.9983 67.0933L34.9921 63.0327L40.3135 71.1538L38.596 78.6693L45.3569 87.1777Z" fill="url(#paint6_linear_14290_2656)"/>
<path d="M120.79 59.5676L128.305 50.3147L124.523 43.6133L128.693 35.5518L122.646 33.3577L120.274 42.7794L124.374 49.312L120.79 59.5676Z" fill="url(#paint7_linear_14290_2656)"/>
</g>
<defs>
<linearGradient id="paint0_linear_14290_2656" x1="74.3966" y1="43.2164" x2="60.8647" y2="66.0807" gradientUnits="userSpaceOnUse">
<stop stop-color="#E0E0E0"/>
<stop offset="1" stop-color="#B5B5B5"/>
</linearGradient>
<linearGradient id="paint1_linear_14290_2656" x1="80.979" y1="59.3197" x2="110.29" y2="100.939" gradientUnits="userSpaceOnUse">
<stop stop-color="#B5B5B5"/>
<stop offset="1" stop-color="#E0E0E0"/>
</linearGradient>
<linearGradient id="paint2_linear_14290_2656" x1="76.5112" y1="141.067" x2="177.938" y2="141.067" gradientUnits="userSpaceOnUse">
<stop stop-color="#E0E0E0"/>
<stop offset="1" stop-color="#B5B5B5"/>
</linearGradient>
<linearGradient id="paint3_linear_14290_2656" x1="52.8428" y1="141.067" x2="76.5112" y2="141.067" gradientUnits="userSpaceOnUse">
<stop stop-color="#E0E0E0"/>
<stop offset="1" stop-color="#B5B5B5"/>
</linearGradient>
<linearGradient id="paint4_linear_14290_2656" x1="43.719" y1="115.542" x2="76.5112" y2="115.542" gradientUnits="userSpaceOnUse">
<stop stop-color="#E0E0E0"/>
<stop offset="1" stop-color="#F5F5F5"/>
</linearGradient>
<linearGradient id="paint5_linear_14290_2656" x1="76.5113" y1="115.542" x2="148.063" y2="115.542" gradientUnits="userSpaceOnUse">
<stop stop-color="#F5F5F5"/>
<stop offset="1" stop-color="#E0E0E0"/>
</linearGradient>
<linearGradient id="paint6_linear_14290_2656" x1="33.036" y1="65.7958" x2="43.7418" y2="84.892" gradientUnits="userSpaceOnUse">
<stop stop-color="#FAFAFA"/>
<stop offset="0.98121" stop-color="#B5B5B5"/>
</linearGradient>
<linearGradient id="paint7_linear_14290_2656" x1="110.34" y1="60.5825" x2="127.264" y2="39.6539" gradientUnits="userSpaceOnUse">
<stop stop-color="#B5B5B5"/>
<stop offset="1" stop-color="#FAFAFA"/>
</linearGradient>
</defs>
</svg>
