<svg width="20" height="20" viewBox="0 0 20 20" fill="none" xmlns="http://www.w3.org/2000/svg">
<g id="Checkbox">
<g id="Checkbox_2">
<path id="Subtract" fill-rule="evenodd" clip-rule="evenodd" d="M1.0415 10C1.0415 14.9417 5.05817 18.9584 9.99984 18.9584C14.9415 18.9584 18.9582 14.9417 18.9582 10C18.9582 5.05835 14.9415 1.04169 9.99984 1.04169C5.05817 1.04169 1.0415 5.05835 1.0415 10ZM8.37455 12.8C8.49121 12.9167 8.64954 12.9834 8.81621 12.9834C8.98288 12.9834 9.14121 12.9167 9.25788 12.8L13.9829 8.07502C14.2245 7.83335 14.2245 7.43335 13.9829 7.19169C13.7412 6.95002 13.3412 6.95002 13.0995 7.19169L8.81621 11.475L6.89954 9.55835C6.65788 9.31669 6.25788 9.31669 6.01621 9.55835C5.77454 9.80002 5.77454 10.2 6.01621 10.4417L8.37455 12.8Z" fill="#059A52"/>
</g>
</g>
</svg>
