<svg width="32" height="32" viewBox="0 0 32 32" fill="none" xmlns="http://www.w3.org/2000/svg">
<g id="Swap me">
<path id="Vector" d="M16 29.3467C14.16 29.3467 12.4267 29 10.8 28.2933C9.17332 27.5867 7.75999 26.64 6.55999 25.44C5.35999 24.24 4.41332 22.8267 3.70665 21.2C2.99999 19.5733 2.65332 17.84 2.65332 16C2.65332 14.16 2.99999 12.4267 3.70665 10.8C4.41332 9.17332 5.35999 7.75999 6.55999 6.55999C7.75999 5.35999 9.17332 4.41332 10.8 3.70665C12.4267 2.99999 14.16 2.65332 16 2.65332C17.84 2.65332 19.5733 2.99999 21.2 3.70665C22.8267 4.41332 24.24 5.35999 25.44 6.55999C26.64 7.75999 27.5867 9.17332 28.2933 10.8C29 12.4267 29.3467 14.16 29.3467 16C29.3467 17.84 29 19.5733 28.2933 21.2C27.5867 22.8267 26.64 24.24 25.44 25.44C24.24 26.64 22.8267 27.5867 21.2 28.2933C19.5733 29 17.84 29.3467 16 29.3467ZM14.6667 26.6133V24.0133C13.9333 24.0133 13.3067 23.7467 12.7867 23.2267C12.2667 22.7067 12 22.08 12 21.3467V20.0133L5.59999 13.6133C5.53332 14.0133 5.46665 14.4133 5.41332 14.8133C5.35999 15.2133 5.33332 15.6133 5.33332 16.0133C5.33332 18.7067 6.21332 21.0533 7.98665 23.08C9.75999 25.1067 11.9867 26.28 14.6667 26.6133ZM23.8667 23.2133C24.3067 22.72 24.7067 22.2 25.0667 21.6267C25.4267 21.0533 25.72 20.4667 25.9467 19.8533C26.1733 19.24 26.36 18.6133 26.48 17.9733C26.6 17.3333 26.6667 16.6667 26.6667 16C26.6667 13.8267 26.0667 11.8267 24.8533 10.0267C23.64 8.22665 22.0267 6.91999 20 6.11999V6.65332C20 7.38665 19.7333 8.01332 19.2133 8.53332C18.6933 9.05332 18.0667 9.31999 17.3333 9.31999H14.6667V11.9867C14.6667 12.36 14.5333 12.68 14.28 12.9333C14.0267 13.1867 13.7067 13.32 13.3333 13.32H10.6667V15.9867H18.6667C19.04 15.9867 19.36 16.12 19.6133 16.3733C19.8667 16.6267 20 16.9467 20 17.32V21.32H21.3333C21.9067 21.32 22.44 21.4933 22.9067 21.84C23.3733 22.1867 23.6933 22.64 23.88 23.1867L23.8667 23.2133Z" fill="black" fill-opacity="0.65"/>
</g>
</svg>
