<svg width="24" height="24" viewBox="0 0 24 24" fill="none" xmlns="http://www.w3.org/2000/svg">
<g id="Swap me">
<path id="Vector" d="M20.5 8.5C20.2 8.2 19.8 8 19.4 8H15C14.6 8 14.2 8.2 13.9 8.5C13.6 8.8 13.4 9.2 13.4 9.6V19.4C13.4 19.8 13.6 20.2 13.9 20.5C14.2 20.8 14.6 21 15 21H19.4C19.8 21 20.2 20.8 20.5 20.5C20.8 20.2 21 19.8 21 19.4V9.6C21 9.31 20.8 8.8 20.5 8.5ZM17.2 19C16.6 19 16.2 18.6 16.2 18C16.2 17.4 16.6 17 17.2 17C17.8 17 18.2 17.4 18.2 18C18.2 18.6 17.8 19 17.2 19ZM15.3 3.6C14.9 3.2 14.4 3 13.9 3H5C4.5 3 4 3.2 3.6 3.6C3.2 4 3 4.5 3 5V19C3 19.5 3.2 20 3.6 20.4C4 20.8 4.5 21 5 21H11.82C11.55 20.5 11.4 19.95 11.4 19.4V9.6C11.4 8.69 11.8 7.77 12.49 7.09C13.18 6.4 14.1 6 15 6H15.9V5C15.9 4.5 15.7 4 15.3 3.6ZM9.45 19C8.85 19 8.45 18.6 8.45 18C8.45 17.4 8.85 17 9.45 17C10.05 17 10.45 17.4 10.45 18C10.45 18.6 10.05 19 9.45 19Z" fill="black" fill-opacity="0.65"/>
</g>
</svg>
