<svg width="230" height="230" viewBox="0 0 230 230" fill="none" xmlns="http://www.w3.org/2000/svg">
<path d="M88.4791 40.5891C80.8016 41.7094 61.0589 63.0287 72.352 82.9224C74.2117 86.1986 79.6724 89.5127 82.0227 87.1395C84.8912 84.2431 82.8062 81.436 79.7631 78.8366C70.8164 71.198 55.2986 77.5933 47.6708 88.6188C39.911 99.8353 39.9433 116.001 44.4268 126.38" stroke="#2E31BE" stroke-miterlimit="10" stroke-linecap="round" stroke-dasharray="3 3"/>
<path d="M230 189H0V219H230V189Z" fill="url(#paint0_radial_234_36608)" fill-opacity="0.4"/>
<g clip-path="url(#clip0_234_36608)">
<path d="M90.7671 133.023C94.2509 132.787 97.2712 135.767 97.5224 139.698L98.7523 158.652C99.0047 162.568 96.4027 165.921 92.9188 166.158L38.5826 169.819C35.0988 170.056 32.0785 167.075 31.826 163.159L30.5962 144.205C30.345 140.274 32.947 136.922 36.4308 136.685L90.7671 133.023Z" fill="#B5CAFD"/>
<path d="M92.3187 131.704C95.8024 131.467 98.8222 134.448 99.0731 138.379L100.301 157.336C100.553 161.252 97.951 164.605 94.4673 164.842L40.1331 168.51C36.6495 168.747 33.6296 165.766 33.3775 161.849L32.1494 142.892C31.8986 138.962 34.5008 135.608 37.9845 135.371L92.3187 131.704Z" fill="#7EA0F9"/>
<path d="M53.1108 141.299C54.3109 141.214 55.3574 142.245 55.4433 143.584L56.375 157.968C56.4597 159.322 55.5557 160.475 54.3569 160.546L41.58 161.405C40.3799 161.491 39.3477 160.461 39.2618 159.122L38.3301 144.737C38.2454 143.384 39.1339 142.244 40.3339 142.158L53.1108 141.299Z" fill="#DCE6FF"/>
<path d="M92.9874 142.433C93.695 142.392 94.3042 142.995 94.3516 143.781C94.3989 144.567 93.865 145.26 93.1716 145.302L61.9781 147.406C61.2847 147.448 60.6755 146.845 60.6139 146.058C60.5523 145.271 61.0862 144.578 61.7796 144.536L92.9731 142.432L92.9874 142.433Z" fill="#DCE6FF"/>
<path d="M86.9459 150.673C87.6393 150.631 88.264 151.221 88.3101 152.021C88.3562 152.822 87.8248 153.486 87.1314 153.528L62.4999 155.195C61.8065 155.237 61.196 154.649 61.1487 153.863C61.1014 153.077 61.621 152.383 62.3144 152.341L86.9459 150.673Z" fill="#DCE6FF"/>
<path d="M171.154 83.4583C174.277 83.2485 176.979 85.9125 177.196 89.4056L178.094 103.192C178.326 106.687 175.983 109.7 172.875 109.911L117.195 113.66C114.087 113.871 111.384 111.207 111.168 107.699L110.27 93.9125C110.039 90.4182 112.382 87.4053 115.475 87.1931L171.154 83.4583Z" fill="#7EA0F9"/>
<path d="M174.225 130.714C177.347 130.504 180.05 133.168 180.267 136.661L181.165 150.448C181.396 153.943 179.053 156.955 175.945 157.167L120.265 160.916C117.157 161.127 114.454 158.463 114.239 154.955L113.34 141.168C113.109 137.674 115.452 134.661 118.546 134.449L174.226 130.7L174.225 130.714Z" fill="#7EA0F9"/>
<path d="M177.287 177.913C180.409 177.704 183.112 180.368 183.329 183.861L184.227 197.648C184.458 201.142 182.116 204.155 179.008 204.366L123.327 208.115C120.219 208.326 117.517 205.662 117.301 202.154L116.403 188.368C116.172 184.873 118.514 181.86 121.608 181.648L177.288 177.899L177.287 177.913Z" fill="#7EA0F9"/>
<path d="M171.262 137.131C171.955 137.089 172.578 137.693 172.626 138.479C172.673 139.266 172.139 139.959 171.446 140.001L125.812 143.086C125.104 143.127 124.509 142.526 124.447 141.738C124.386 140.951 124.92 140.258 125.613 140.216L171.247 137.13L171.262 137.131Z" fill="#FAFAFA"/>
<path d="M165.191 145.353C165.9 145.298 166.508 145.915 166.555 146.701C166.602 147.487 166.083 148.181 165.375 148.222L126.303 150.871C125.595 150.911 125 150.31 124.939 149.522C124.877 148.735 125.411 148.042 126.105 148L165.177 145.351L165.191 145.353Z" fill="#FAFAFA"/>
<path d="M175.758 129.388C178.88 129.178 181.581 131.842 181.798 135.336L182.693 149.128C182.923 152.623 180.58 155.638 177.472 155.85L121.796 159.613C118.688 159.824 115.986 157.16 115.771 153.651L114.876 139.86C114.646 136.364 116.989 133.35 120.083 133.137L175.759 129.374L175.758 129.388Z" fill="#B5CAFD"/>
<path d="M166.567 146.715C166.614 147.501 166.094 148.195 165.387 148.236L126.315 150.888C125.607 150.928 124.998 150.326 124.952 149.525C124.905 148.739 125.423 148.059 126.118 148.002L165.203 145.366C165.912 145.311 166.52 145.928 166.567 146.715Z" fill="#DCE6FF"/>
<path d="M172.613 138.49C172.66 139.276 172.14 139.971 171.433 140.011L125.799 143.1C125.09 143.156 124.482 142.539 124.435 141.752C124.388 140.966 124.907 140.271 125.601 140.229L171.25 137.127C171.943 137.085 172.567 137.689 172.613 138.49Z" fill="#DCE6FF"/>
<path d="M168.199 89.8774C168.892 89.8354 169.516 90.4393 169.563 91.2255C169.61 92.0118 169.077 92.7048 168.383 92.7467L122.749 95.8325C122.041 95.8733 121.446 95.2719 121.385 94.4844C121.323 93.6969 121.857 93.0039 122.551 92.9619L168.185 89.8762L168.199 89.8774Z" fill="#FAFAFA"/>
<path d="M162.144 98.1008C162.853 98.0456 163.461 98.6626 163.508 99.4489C163.555 100.235 163.036 100.929 162.328 100.97L123.256 103.619C122.548 103.659 121.954 103.058 121.892 102.271C121.83 101.483 122.364 100.79 123.058 100.748L162.13 98.0995L162.144 98.1008Z" fill="#FAFAFA"/>
<path d="M172.703 82.1363C175.825 81.9257 178.527 84.5901 178.743 88.0845L179.638 101.876C179.868 105.372 177.525 108.386 174.417 108.598L118.741 112.361C115.633 112.573 112.932 109.908 112.717 106.399L111.822 92.6079C111.591 89.1123 113.935 86.0979 117.028 85.8848L172.703 82.1363Z" fill="#B5CAFD"/>
<path d="M163.511 99.4623C163.558 100.249 163.04 100.929 162.331 100.984L123.259 103.635C122.552 103.676 121.942 103.073 121.896 102.273C121.849 101.486 122.368 100.806 123.077 100.751L162.148 98.0996C162.856 98.0588 163.465 98.6615 163.511 99.4623Z" fill="#DCE6FF"/>
<path d="M169.558 91.2379C169.62 92.0255 169.087 92.7043 168.378 92.7594L122.744 95.8485C122.036 95.8893 121.441 95.2878 121.38 94.5002C121.334 93.6994 121.852 93.0194 122.56 92.9786L168.195 89.8751C168.889 89.8331 169.512 90.4371 169.558 91.2379Z" fill="#DCE6FF"/>
<path d="M174.34 184.315C175.033 184.273 175.657 184.877 175.704 185.663C175.751 186.449 175.217 187.142 174.524 187.184L128.89 190.27C128.182 190.311 127.587 189.709 127.526 188.922C127.464 188.134 127.998 187.441 128.691 187.399L174.325 184.314L174.34 184.315Z" fill="#FAFAFA"/>
<path d="M168.285 192.554C168.994 192.499 169.602 193.116 169.649 193.902C169.696 194.688 169.176 195.382 168.469 195.423L129.397 198.072C128.689 198.113 128.094 197.511 128.033 196.724C127.971 195.936 128.505 195.243 129.198 195.201L168.27 192.553L168.285 192.554Z" fill="#FAFAFA"/>
<path d="M178.836 176.589C181.958 176.379 184.66 179.043 184.876 182.538L185.771 196.329C186.001 199.825 183.658 202.839 180.55 203.051L124.874 206.814C121.766 207.026 119.065 204.361 118.85 200.853L117.955 187.061C117.724 183.565 120.068 180.551 123.161 180.338L178.837 176.575L178.836 176.589Z" fill="#B5CAFD"/>
<path d="M169.645 193.902C169.692 194.689 169.173 195.383 168.465 195.424L129.393 198.075C128.684 198.13 128.09 197.514 128.029 196.727C127.982 195.94 128.501 195.246 129.209 195.205L168.281 192.554C168.99 192.499 169.598 193.116 169.645 193.902Z" fill="#DCE6FF"/>
<path d="M175.692 185.676C175.753 186.463 175.219 187.157 174.512 187.197L128.877 190.301C128.169 190.342 127.575 189.726 127.514 188.938C127.467 188.152 127.986 187.457 128.694 187.416L174.328 184.327C175.037 184.272 175.645 184.889 175.692 185.676Z" fill="#FAFAFA"/>
<path d="M104.138 109.963C103.777 104.474 106.463 99.8106 110.133 99.5607L112.258 99.41L112.38 101.331L110.255 101.482C107.524 101.668 105.549 105.422 105.829 109.847L108.232 146.695L115.299 146.215L115.422 148.122L108.355 148.602L110.758 185.45C111.053 189.877 113.5 193.33 116.217 193.143L118.342 192.992L118.464 194.913L116.339 195.064C112.668 195.314 109.4 191.053 109.053 185.565L106.65 148.717L101.838 149.042L99.7853 149.185L99.662 147.278L101.714 147.135L106.527 146.81L104.124 109.961L104.138 109.963Z" fill="#7EA0F9"/>
</g>
<path d="M109.954 54.2226C119.041 54.2226 126.409 46.8555 126.409 37.7676C126.409 28.6797 119.041 21.3125 109.954 21.3125C100.866 21.3125 93.4985 28.6797 93.4985 37.7676C93.4985 46.8555 100.866 54.2226 109.954 54.2226Z" fill="#7EA0F9"/>
<path d="M106.4 45.8168C106.4 43.9757 107.87 42.5914 109.968 42.5914C112.066 42.5914 113.507 43.9757 113.507 45.8168C113.507 47.6578 112.066 49.0992 109.968 49.0992C107.87 49.0992 106.4 47.6292 106.4 45.8168ZM106.428 26.907H113.507L112.323 40.836H107.599L106.443 26.907H106.428Z" fill="#FBFBFB"/>
<circle cx="80.1594" cy="29.7937" r="3.23901" stroke="#B5CAFD" stroke-width="1.5"/>
<path d="M106.402 62.2952V70.938" stroke="#B5CAFD" stroke-width="1.5" stroke-linecap="round"/>
<path d="M110.722 66.6174L102.079 66.6174" stroke="#B5CAFD" stroke-width="1.5" stroke-linecap="round"/>
<circle cx="83.3743" cy="62.2957" r="3.98901" fill="#B5CAFD"/>
<circle cx="143.154" cy="46.9089" r="6.56319" stroke="#B5CAFD" stroke-width="1.5"/>
<defs>
<radialGradient id="paint0_radial_234_36608" cx="0" cy="0" r="1" gradientUnits="userSpaceOnUse" gradientTransform="translate(116.233 181.614) rotate(90) scale(34.9332 107.969)">
<stop stop-color="#7EA0F9"/>
<stop offset="0.14" stop-color="#7FA1F9" stop-opacity="0.99"/>
<stop offset="0.27" stop-color="#84A4F9" stop-opacity="0.94"/>
<stop offset="0.39" stop-color="#8DABF9" stop-opacity="0.87"/>
<stop offset="0.51" stop-color="#99B3FA" stop-opacity="0.76"/>
<stop offset="0.63" stop-color="#A8BFFB" stop-opacity="0.63"/>
<stop offset="0.75" stop-color="#BBCCFC" stop-opacity="0.46"/>
<stop offset="0.87" stop-color="#D1DDFD" stop-opacity="0.26"/>
<stop offset="0.98" stop-color="#EAEFFE" stop-opacity="0.04"/>
<stop offset="1" stop-color="#EFF3FF" stop-opacity="0"/>
</radialGradient>
<clipPath id="clip0_234_36608">
<rect width="160" height="136" fill="white" transform="translate(30 76.999)"/>
</clipPath>
</defs>
</svg>
