<svg width="16" height="16" viewBox="0 0 16 16" fill="none" xmlns="http://www.w3.org/2000/svg">
<g id="ic_offer_coupon">
<path id="Vector" d="M13.9403 8.86484C13.3337 8.44495 13.3337 7.54517 13.9403 7.13194C14.8067 6.53876 14.3668 5.18576 13.3138 5.21242C12.5739 5.23242 12.0474 4.50593 12.294 3.80611C12.6473 2.81969 11.4942 1.9799 10.6611 2.61974C10.0746 3.07296 9.22144 2.79303 9.00816 2.08654C8.7149 1.08012 7.28859 1.08012 6.98867 2.08654C6.78205 2.79303 5.92227 3.07296 5.33575 2.61974C4.50262 1.9799 3.34958 2.81969 3.70282 3.80611C3.94943 4.49927 3.42289 5.23242 2.68308 5.21242C1.63667 5.18576 1.19678 6.53876 2.05657 7.13194C2.66308 7.55184 2.66308 8.45161 2.05657 8.86484C1.19012 9.45803 1.63001 10.811 2.68308 10.7844C3.42289 10.7644 3.94943 11.4909 3.70282 12.1907C3.34958 13.1771 4.50262 14.0169 5.33575 13.377C5.92227 12.9238 6.77539 13.2038 6.98867 13.9102C7.28193 14.9167 8.70824 14.9167 9.00816 13.9102C9.21478 13.2038 10.0746 12.9238 10.6611 13.377C11.4942 14.0169 12.6473 13.1771 12.294 12.1907C12.0474 11.4975 12.5739 10.7644 13.3138 10.7844C14.3602 10.811 14.8 9.45803 13.9403 8.86484ZM5.89561 5.88559C6.22219 5.559 6.74873 5.559 7.07531 5.88559C7.4019 6.21217 7.4019 6.73871 7.07531 7.06529C6.74873 7.39188 6.22219 7.39188 5.89561 7.06529C5.56902 6.73871 5.56902 6.21217 5.89561 5.88559ZM10.1279 10.1179C9.8013 10.4444 9.27476 10.4444 8.94818 10.1179C8.62159 9.79128 8.62159 9.26474 8.94818 8.93816C9.27476 8.61157 9.8013 8.61157 10.1279 8.93816C10.4545 9.26474 10.4545 9.79128 10.1279 10.1179ZM10.3478 6.60541L6.61543 10.3378C6.34883 10.6044 5.94893 10.6044 5.68233 10.3378C5.41573 10.0712 5.41573 9.67131 5.68233 9.40471L9.41473 5.67231C9.68133 5.40571 10.0812 5.40571 10.3478 5.67231C10.6144 5.93891 10.6144 6.33881 10.3478 6.60541Z" fill="#3535F3"/>
</g>
</svg>
