<svg width="20" height="20" viewBox="0 0 20 20" fill="none" xmlns="http://www.w3.org/2000/svg">
<g id="ic_open_with">
<path id="Vector" d="M4.16667 17.5C3.70833 17.5 3.31667 17.3333 2.99167 17.0083C2.66667 16.6833 2.5 16.2917 2.5 15.8333V4.16667C2.5 3.70833 2.66667 3.31667 2.99167 2.99167C3.31667 2.66667 3.70833 2.5 4.16667 2.5H9.16667C9.4 2.5 9.6 2.58333 9.75833 2.74167C9.91667 2.9 10 3.1 10 3.33333C10 3.56667 9.91667 3.76667 9.75833 3.925C9.6 4.08333 9.4 4.16667 9.16667 4.16667H4.16667V15.8333H15.8333V10.8333C15.8333 10.6 15.9167 10.4 16.075 10.2417C16.2333 10.0833 16.4333 10 16.6667 10C16.9 10 17.1 10.0833 17.2583 10.2417C17.4167 10.4 17.5 10.6 17.5 10.8333V15.8333C17.5 16.2917 17.3333 16.6833 17.0083 17.0083C16.6833 17.3333 16.2917 17.5 15.8333 17.5H4.16667ZM15.8333 5.33333L8.66667 12.5C8.51667 12.65 8.31667 12.7333 8.08333 12.7333C7.85 12.7333 7.65 12.6583 7.5 12.5C7.35 12.3417 7.26667 12.15 7.26667 11.9167C7.26667 11.6833 7.34167 11.4833 7.5 11.3333L14.6667 4.16667H12.5C12.2667 4.16667 12.0667 4.08333 11.9083 3.925C11.75 3.76667 11.6667 3.56667 11.6667 3.33333C11.6667 3.1 11.75 2.9 11.9083 2.74167C12.0667 2.58333 12.2667 2.5 12.5 2.5H16.6667C16.9 2.5 17.1 2.58333 17.2583 2.74167C17.4167 2.9 17.5 3.1 17.5 3.33333V7.5C17.5 7.73333 17.4167 7.93333 17.2583 8.09167C17.1 8.25 16.9 8.33333 16.6667 8.33333C16.4333 8.33333 16.2333 8.25 16.075 8.09167C15.9167 7.93333 15.8333 7.73333 15.8333 7.5V5.33333Z" fill="#000093"/>
</g>
</svg>
