<svg width="24" height="24" viewBox="0 0 24 24" fill="none" xmlns="http://www.w3.org/2000/svg">
<g id="ic_rocket">
<path id="Vector" d="M5.98712 11.8742C6.42234 10.7608 6.94866 9.68795 7.56607 8.65556C8.18348 7.62317 8.88186 6.65151 9.65109 5.74058L8.3353 5.45718C8.00129 5.38633 7.66728 5.40657 7.3434 5.50778C7.01951 5.609 6.74623 5.78106 6.50332 6.01386L3.31506 9.20212C3.06202 9.45515 2.96081 9.7588 3.02153 10.113C3.08226 10.4673 3.27457 10.7102 3.6187 10.8519L5.977 11.8641L5.98712 11.8742ZM20.8657 2.00576C19.0742 1.92479 17.3738 2.26892 15.7644 3.04827C14.1551 3.82762 12.7179 4.84989 11.4527 6.11507C10.643 6.92479 9.93449 7.80536 9.31708 8.74665C8.69967 9.68795 8.16324 10.69 7.70777 11.7325C7.6268 11.9552 7.57619 12.1778 7.57619 12.4005C7.57619 12.6232 7.65716 12.8256 7.82923 12.9977L10.9972 16.1657C11.1693 16.3377 11.3616 16.4187 11.5944 16.4187C11.8272 16.4187 12.0499 16.3782 12.2624 16.2871C13.3049 15.8317 14.307 15.2952 15.2483 14.6778C16.1896 14.0604 17.0701 13.3519 17.8798 12.5422C19.145 11.277 20.1673 9.83977 20.9466 8.23046C21.726 6.62114 22.0701 4.92074 21.9891 3.12924C21.9891 2.99766 21.9588 2.85596 21.8879 2.72438C21.8171 2.5928 21.7361 2.47135 21.6349 2.37013C21.5337 2.26892 21.4122 2.18795 21.2806 2.1171C21.1491 2.04625 21.0074 2.01588 20.8758 2.01588L20.8657 2.00576ZM14.4385 9.54625C14.0539 9.16163 13.8515 8.68592 13.8515 8.11912C13.8515 7.55232 14.0438 7.07661 14.4385 6.692C14.8333 6.30738 15.2989 6.10495 15.8657 6.10495C16.4325 6.10495 16.9082 6.29726 17.2928 6.692C17.6774 7.08673 17.8798 7.55232 17.8798 8.11912C17.8798 8.68592 17.6875 9.16163 17.2928 9.54625C16.8981 9.93086 16.4325 10.1333 15.8657 10.1333C15.2989 10.1333 14.8232 9.94098 14.4385 9.54625ZM12.1106 17.9977L13.1227 20.356C13.2543 20.69 13.5074 20.8924 13.8616 20.9632C14.2159 21.0341 14.5195 20.9329 14.7725 20.6798L17.9608 17.4916C18.1936 17.2588 18.3657 16.9754 18.4669 16.6414C18.5681 16.3074 18.5883 15.9835 18.5175 15.6394L18.2645 14.3236C17.3333 15.1029 16.3616 15.7912 15.3393 16.4086C14.3171 17.026 13.2442 17.5523 12.1106 17.9875V17.9977ZM3.89198 15.8215C4.47902 15.2345 5.19765 14.9309 6.04785 14.9207C6.88793 14.9207 7.60655 15.2041 8.20372 15.7912C8.80089 16.3782 9.09441 17.0969 9.09441 17.9471C9.09441 18.7973 8.80089 19.5058 8.20372 20.1029C7.394 20.9126 6.43247 21.3985 5.32923 21.5503C4.22599 21.7021 3.11263 21.8539 1.99927 22.0058C2.15109 20.8924 2.30291 19.779 2.46485 18.6758C2.6268 17.5726 3.10251 16.6211 3.89198 15.8317V15.8215Z" fill="#3535F3"/>
</g>
</svg>
