<svg width="24" height="24" viewBox="0 0 24 24" fill="none" xmlns="http://www.w3.org/2000/svg">
<g id="Swap me">
<path id="Vector" d="M21.4 3.6C21 3.2 20.5 3 20 3H4C3.5 3 3 3.2 2.6 3.6C2.2 4 2 4.5 2 5V17C2 17.5 2.2 18 2.6 18.4C3 18.8 3.5 19 4 19H12V10C12 7.8 13.79 6 16 6H20C20.73 6 21.42 6.2 22 6.54V5C22 4.5 21.8 4 21.4 3.6ZM5 7C4.45 7 4 6.55 4 6C4 5.45 4.45 5 5 5C5.55 5 6 5.45 6 6C6 6.55 5.56 7 5 7ZM8 7C7.45 7 7 6.55 7 6C7 5.45 7.45 5 8 5C8.55 5 9 5.45 9 6C9 6.55 8.56 7 8 7ZM11 7C10.45 7 10 6.55 10 6C10 5.45 10.45 5 11 5C11.55 5 12 5.45 12 6C12 6.55 11.56 7 11 7ZM20 8H16C14.9 8 14 8.9 14 10V19C14 20.1 14.9 21 16 21H20C21.1 21 22 20.1 22 19V10C22 8.9 21.1 8 20 8ZM18 19C17.45 19 17 18.55 17 18C17 17.45 17.45 17 18 17C18.55 17 19 17.45 19 18C19 18.55 18.55 19 18 19Z" fill="black" fill-opacity="0.65"/>
</g>
</svg>
