<svg width="72" height="72" viewBox="0 0 72 72" fill="none" xmlns="http://www.w3.org/2000/svg">
<g filter="url(#filter0_d_228_85861)">
<path d="M16 32C16 20.9543 24.9543 12 36 12C47.0457 12 56 20.9543 56 32C56 43.0457 47.0457 52 36 52C24.9543 52 16 43.0457 16 32Z" fill="#FAFAFA"/>
<path d="M16.5 32C16.5 21.2304 25.2304 12.5 36 12.5C46.7696 12.5 55.5 21.2304 55.5 32C55.5 42.7696 46.7696 51.5 36 51.5C25.2304 51.5 16.5 42.7696 16.5 32Z" stroke="#E0E0E0"/>
<path d="M45.4 24.6C45 24.2 44.5 24 44 24H28C27.5 24 27 24.2 26.6 24.6C26.2 25 26 25.5 26 26V38C26 38.5 26.2 39 26.6 39.4C27 39.8 27.5 40 28 40H37.05C37.64 40 38.12 39.5 38.04 38.92C38.01 38.72 38 38.52 38 38.32C37.96 35.84 39.83 33.62 42.29 33.29C43.14 33.17 43.96 33.27 44.7 33.54C45.34 33.77 46 33.27 46 32.59V26C46 25.5 45.8 25 45.4 24.6ZM29 28C28.45 28 28 27.55 28 27C28 26.45 28.45 26 29 26C29.55 26 30 26.45 30 27C30 27.55 29.56 28 29 28ZM32 28C31.45 28 31 27.55 31 27C31 26.45 31.45 26 32 26C32.55 26 33 26.45 33 27C33 27.55 32.56 28 32 28ZM35 28C34.45 28 34 27.55 34 27C34 26.45 34.45 26 35 26C35.55 26 36 26.45 36 27C36 27.55 35.56 28 35 28ZM41.4 41.32C41.3 41.46 41.17 41.51 41.02 41.46C40.87 41.41 40.78 41.3 40.77 41.13L40.6 35.61C40.59 35.47 40.65 35.37 40.77 35.3C40.89 35.23 41.02 35.23 41.13 35.3L45.83 38.2C45.97 38.3 46.03 38.43 45.99 38.59C45.95 38.75 45.85 38.84 45.68 38.85L43.27 38.99C43.05 39 42.85 39.12 42.73 39.3L41.41 41.32H41.4Z" fill="url(#paint0_linear_228_85861)"/>
</g>
<defs>
<filter id="filter0_d_228_85861" x="0" y="0" width="72" height="72" filterUnits="userSpaceOnUse" color-interpolation-filters="sRGB">
<feFlood flood-opacity="0" result="BackgroundImageFix"/>
<feColorMatrix in="SourceAlpha" type="matrix" values="0 0 0 0 0 0 0 0 0 0 0 0 0 0 0 0 0 0 127 0" result="hardAlpha"/>
<feOffset dy="4"/>
<feGaussianBlur stdDeviation="8"/>
<feColorMatrix type="matrix" values="0 0 0 0 0 0 0 0 0 0 0 0 0 0 0 0 0 0 0.08 0"/>
<feBlend mode="normal" in2="BackgroundImageFix" result="effect1_dropShadow_228_85861"/>
<feBlend mode="normal" in="SourceGraphic" in2="effect1_dropShadow_228_85861" result="shape"/>
</filter>
<linearGradient id="paint0_linear_228_85861" x1="22.4769" y1="32.7395" x2="49.4611" y2="31.4234" gradientUnits="userSpaceOnUse">
<stop stop-color="#1ECCB0"/>
<stop offset="1" stop-color="#3535F3"/>
</linearGradient>
</defs>
</svg>
